<svg viewBox="0 0 800 1000" xmlns="http://www.w3.org/2000/svg">
  <rect width="800" height="1000" fill="#0a0a0a"/>
  <rect x="40" y="40" width="720" height="920" fill="none" stroke="#3a3a3a" stroke-width="2" stroke-dasharray="6 6"/>
  <circle cx="400" cy="460" r="260" fill="#141414" stroke="#ff6a00" stroke-width="3"/>
  <g stroke="#ff6a00" stroke-width="2" fill="#ff6a00" opacity="0.85">
    <g transform="rotate(0 400 460)"><path d="M400,390 L385,215 L415,215 Z"/></g>
    <g transform="rotate(25.7 400 460)"><path d="M400,390 L385,215 L415,215 Z"/></g>
    <g transform="rotate(51.4 400 460)"><path d="M400,390 L385,215 L415,215 Z"/></g>
    <g transform="rotate(77.1 400 460)"><path d="M400,390 L385,215 L415,215 Z"/></g>
    <g transform="rotate(102.8 400 460)"><path d="M400,390 L385,215 L415,215 Z"/></g>
    <g transform="rotate(128.5 400 460)"><path d="M400,390 L385,215 L415,215 Z"/></g>
    <g transform="rotate(154.2 400 460)"><path d="M400,390 L385,215 L415,215 Z"/></g>
    <g transform="rotate(180 400 460)"><path d="M400,390 L385,215 L415,215 Z"/></g>
    <g transform="rotate(205.7 400 460)"><path d="M400,390 L385,215 L415,215 Z"/></g>
    <g transform="rotate(231.4 400 460)"><path d="M400,390 L385,215 L415,215 Z"/></g>
    <g transform="rotate(257.1 400 460)"><path d="M400,390 L385,215 L415,215 Z"/></g>
    <g transform="rotate(282.8 400 460)"><path d="M400,390 L385,215 L415,215 Z"/></g>
    <g transform="rotate(308.5 400 460)"><path d="M400,390 L385,215 L415,215 Z"/></g>
    <g transform="rotate(334.2 400 460)"><path d="M400,390 L385,215 L415,215 Z"/></g>
  </g>
  <circle cx="400" cy="460" r="70" fill="#1c1c1c" stroke="#ff6a00" stroke-width="4"/>
  <line x1="200" y1="460" x2="260" y2="460" stroke="#ff6a00" stroke-width="1" opacity="0.5"/>
  <line x1="540" y1="460" x2="600" y2="460" stroke="#ff6a00" stroke-width="1" opacity="0.5"/>
  <line x1="400" y1="200" x2="400" y2="260" stroke="#ff6a00" stroke-width="1" opacity="0.5"/>
  <line x1="400" y1="660" x2="400" y2="720" stroke="#ff6a00" stroke-width="1" opacity="0.5"/>
  <rect x="0" y="900" width="800" height="100" fill="#000000" opacity="0.55"/>
  <line x1="0" y1="900" x2="800" y2="900" stroke="#2a2a2a" stroke-width="1"/>
  <text x="60" y="945" font-family="monospace" font-size="13" letter-spacing="3" fill="#8a8a8a">HYBRID CORE</text>
  <text x="740" y="945" text-anchor="end" font-family="monospace" font-size="13" letter-spacing="3" fill="#ff6a00">MACRO 4X</text>
  <text x="400" y="985" text-anchor="middle" font-family="monospace" font-size="18" letter-spacing="5" fill="#e5e5e5">WHEEL DETAIL</text>
</svg>
